<?xml version="1.0" standalone="no"?>
<!DOCTYPE svg PUBLIC "-//W3C//DTD SVG 20010904//EN"
 "http://www.w3.org/TR/2001/REC-SVG-20010904/DTD/svg10.dtd">
<svg version="1.0" xmlns="http://www.w3.org/2000/svg"
 width="800.000000pt" height="800.000000pt" viewBox="0 0 800.000000 800.000000"
 preserveAspectRatio="xMidYMid meet">
<metadata>
Created by potrace 1.11, written by Peter Selinger 2001-2013
</metadata>
<g transform="translate(0.000000,800.000000) scale(0.100000,-0.100000)"
fill="#000000" stroke="none">
<path d="M3869 6632 c-36 -43 -625 -738 -1309 -1547 -685 -808 -1511 -1785
-1837 -2170 -326 -385 -592 -703 -590 -707 1 -3 242 -226 536 -493 l535 -487
1368 2737 c753 1505 1368 2739 1366 2740 -2 2 -33 -31 -69 -73z"/>
<path d="M3818 6167 c-141 -293 -746 -1540 -1343 -2772 -598 -1232 -1089
-2246 -1092 -2252 -4 -10 242 -13 1210 -13 l1215 0 11 33 c54 174 351 1198
351 1214 0 4 -26 28 -57 53 -129 99 -218 200 -272 307 -11 23 -33 88 -47 144
-24 92 -26 114 -21 228 6 146 28 233 87 351 75 149 202 266 329 304 243 72
495 -77 616 -364 39 -93 55 -180 55 -308 0 -151 -20 -244 -80 -367 -54 -111
-101 -166 -238 -279 -46 -38 -81 -74 -79 -80 3 -7 66 -223 140 -482 75 -258
155 -532 179 -609 l43 -140 1518 -3 c1013 -1 1518 1 1515 8 -5 16 -3772 5559
-3778 5559 -3 0 -121 -239 -262 -532z"/>
</g>
</svg>
