<?xml version="1.0" encoding="utf-8"?>
<!-- Generator: Adobe Illustrator 15.0.0, SVG Export Plug-In . SVG Version: 6.00 Build 0)  -->
<!DOCTYPE svg PUBLIC "-//W3C//DTD SVG 1.1//EN" "http://www.w3.org/Graphics/SVG/1.1/DTD/svg11.dtd">
<svg color="currentColor" version="1.1" id="Layer_1" xmlns="http://www.w3.org/2000/svg" xmlns:xlink="http://www.w3.org/1999/xlink" x="0px" y="0px"
	 width="136px" height="180px" viewBox="0 0 136 180" enable-background="new 0 0 136 180" xml:space="preserve">
<g>
	<g>
		<g id="XMLID_1_">
			<g>
				<path fill="#808080" d="M136,41.23v26.39c-7.6,7.59-14.95,15.5-22.95,22.65c-7.42-7.55-14.81-15.16-22.51-22.41
					c-7.2,7.44-14.6,14.71-21.94,22.02c-0.3,0-0.89,0.01-1.19,0.01c-7.32-7.32-14.76-14.54-21.9-22.04
					c-7.81,7.22-15.15,14.94-22.67,22.46C15,83,7.55,75.25,0,67.63V0h94.6C108.55,13.58,122.27,27.42,136,41.23z M127.6,65.02
					c0.86-5.45,0.26-11.23,0.29-16.81c-13.63,0.1-27.27,0.15-40.9-0.02c-0.13-13.63,0.3-27.3-0.22-40.92
					c-26.18,0.18-52.38,0.18-78.57,0C7.74,24.82,8.13,42.39,8,59.95c0.14,1.67-0.32,3.45,0.33,5.04c4.73,4.84,9.63,9.52,14.3,14.4
					c7.68-7.33,15.09-14.95,22.58-22.48c7.73,6.96,14.84,14.63,22.23,21.96c0.29,0.04,0.89,0.11,1.18,0.15
					c1.74-2.37,4.06-4.22,6.06-6.36c5.44-5.16,10.38-10.97,16.17-15.7c7.47,7.5,14.82,15.16,22.55,22.39
					C118,74.44,122.91,69.83,127.6,65.02z M94.68,40.63c10.04,0.5,20.14,0.22,30.2,0.14c-8.72-8.45-17.23-17.12-25.89-25.63
					c-1.42-1.31-2.58-2.98-4.35-3.86C94.92,21.06,94.84,30.85,94.68,40.63z"/>
			</g>
			<g>
			</g>
		</g>
	</g>
	<g>
		<path fill="#808080" d="M0,87.86c1.38,0.95,2.75,1.93,3.88,3.17c6.17,6.36,12.63,12.43,18.68,18.9
			c7.01-6.79,13.83-13.77,20.73-20.66c0.81-0.86,2.19-2.35,3.19-0.75c7.16,7.14,14.3,14.31,21.47,21.45
			c7.55-7.22,14.73-14.83,22.27-22.07c1.37-0.43,2.05,1.29,3.02,1.93c6.71,6.71,13.35,13.51,20.17,20.1
			c6.05-6.43,12.48-12.49,18.63-18.82c1.16-1.27,2.55-2.28,3.96-3.25V180H0V87.86z M45.4,98.27c-7.6,7.45-14.84,15.34-22.76,22.44
			c-4.84-4.81-9.76-9.53-14.4-14.53c-0.49,5.59-0.13,11.21-0.24,16.81c0.13,16.57-0.26,33.15,0.2,49.71
			c39.85-0.18,79.72-0.19,119.57,0.01c0.45-4.23,0.13-8.48,0.23-12.72c-0.16-17.91,0.32-35.86-0.25-53.75
			c-4.76,4.89-9.54,9.77-14.49,14.46c-7.87-7.18-15.09-15.07-22.79-22.44c-7.36,7.59-14.83,15.09-22.45,22.42
			C60.28,113.43,52.96,105.72,45.4,98.27z"/>
	</g>
</g>
</svg>
