<svg xmlns="http://www.w3.org/2000/svg" width="150" height="180" viewBox="0 0 150 180">
  <defs>
    <style>
      .cls-1 {
        fill: #999;
        fill-rule: evenodd;
      }
    </style>
  </defs>
  <path id="Forma_1" data-name="Forma 1" class="cls-1" d="M94.5,0H56.352A17.273,17.273,0,0,0,39.076,17.273V55.41A17.273,17.273,0,0,0,56.352,72.683H94.5A17.279,17.279,0,0,0,111.779,55.41V17.273A17.284,17.284,0,0,0,94.5,0ZM60.89,59.31h-7.5V37.125h7.5V59.31Zm-2.88-29.543a7.733,7.733,0,1,1,7.734-7.732A7.727,7.727,0,0,1,58.009,29.768ZM73.08,59.31h-7.5V37.125h7.5V59.31Zm12.19,0h-7.5V37.125h7.5V59.31Zm12.19,0h-7.5V37.125h7.5V59.31ZM92.838,29.768a7.733,7.733,0,1,1,7.734-7.732A7.728,7.728,0,0,1,92.838,29.768Zm57.116,124.755a3.8,3.8,0,0,0-.053-0.712c0-.233.053-0.473,0.053-0.705,0-3.743-3.481-6.855-7.764-6.825h-1.238V135.532h0.195l0.03-3.06c0.12-11.235.308-28.2-11.282-39.915-7.606-7.687-18.933-11.58-33.674-11.58v0.075a11.944,11.944,0,0,0-1.725-.24H56.352c-0.428,0-.833.135-1.253,0.172-15.138.03-26.727,3.99-34.446,11.8-8.6,8.692-10.7,20.183-11.17,30.082l-0.27.2v23.205H8.125c-4.4,0-7.944,3.06-7.944,6.818V153.2A6.227,6.227,0,0,0,0,154.477v8.273c0,3.03,2.866,5.475,6.4,5.475,3.5,0,6.406-2.445,6.406-5.475v-2.873l10.4-.037v2.91c0,2.992,2.851,5.437,6.346,5.437,3.533,0,6.4-2.445,6.4-5.437l-0.045-8.3a3.794,3.794,0,0,0-.053-0.712c0-.233.053-0.465,0.053-0.7,0-3.712-3.541-6.8-7.906-6.765H26.729v-22.86c0.353-6.93,1.643-13.9,6.181-18.5a19.457,19.457,0,0,1,6.414-3.975,30.474,30.474,0,0,0-.255,3.443v52.042C39.076,169.447,46.81,180,56.352,180H94.5c9.542,0,17.283-10.553,17.283-23.573V104.385a31.789,31.789,0,0,0-.262-3.518,18.537,18.537,0,0,1,6.113,3.818c4.441,4.485,5.784,11.31,6.159,18.157l-0.06.045V146.28h-1.065c-4.329,0-7.809,3.082-7.809,6.877v0.113a6.879,6.879,0,0,0-.173,1.29v8.34c0,3.052,2.821,5.52,6.286,5.52,3.436,0,6.294-2.468,6.294-5.52V160l10.217-.037v2.94c0,3.015,2.8,5.482,6.233,5.482,3.466,0,6.287-2.467,6.287-5.482Zm-49.4-4.267-5.3,5.3L75.42,135.712,55.587,155.557l-5.3-5.3L70.117,130.41,50.283,110.565l5.3-5.3L75.42,125.107l19.834-19.845,5.3,5.3L80.724,130.41Z"/>
</svg>
