<svg xmlns="http://www.w3.org/2000/svg" width="127.5" height="127.5" viewBox="0 0 127.5 127.5">
  <defs>
    <style>
      .cls-1 {
        fill: #4caf50;
        fill-rule: evenodd;
      }
    </style>
  </defs>
  <path id="created" class="cls-1" d="M64.5,0.5a64,64,0,1,0,64,64A64,64,0,0,0,64.5.5Zm0,120a56,56,0,1,1,56-56A56.068,56.068,0,0,1,64.5,120.5ZM84.3,41.875L56.016,70.156,44.7,58.844A8,8,0,0,0,33.39,70.157L50.359,87.126a8,8,0,0,0,11.313,0L95.609,53.188A8,8,0,0,0,84.3,41.875Z" transform="translate(-0.5 -0.5)"/>
</svg>
