<?xml version="1.0" encoding="utf-8"?>
<!-- Generator: Adobe Illustrator 15.0.0, SVG Export Plug-In . SVG Version: 6.00 Build 0)  -->
<!DOCTYPE svg PUBLIC "-//W3C//DTD SVG 1.1//EN" "http://www.w3.org/Graphics/SVG/1.1/DTD/svg11.dtd">
<svg fill="currentColor" version="1.1" id="Layer_1" xmlns="http://www.w3.org/2000/svg" xmlns:xlink="http://www.w3.org/1999/xlink" x="0px" y="0px"
	 width="20px" height="25.039px" viewBox="0 0 20 25.039" enable-background="new 0 0 20 25.039" xml:space="preserve">
<g>
	<path fill="#4caf50" d="M7.801,0h0.963c1.729,0.109,3.423,0.758,4.759,1.863c2.045,1.645,3.23,4.312,3.023,6.933
		c-0.125,1.111-0.486,2.178-0.892,3.213c-1.013,0.002-2.024,0.002-3.038,0c0.712-0.91,1.144-2.049,1.142-3.209
		c0.05-1.012-0.211-2.03-0.726-2.901c-0.731-1.274-2.002-2.228-3.433-2.563C8.453,3.07,7.216,3.181,6.143,3.673
		c-1.18,0.534-2.15,1.508-2.695,2.682C3.021,7.292,2.832,8.351,2.987,9.376C3.191,10.8,3.96,12.15,5.121,13.011
		c0.448,0.342,0.959,0.594,1.484,0.795c0.492-1.158,0.911-2.346,1.325-3.533c-0.463-0.256-0.948-0.59-1.108-1.121
		C6.521,8.318,7.071,7.296,7.931,7.084c0.448-0.11,0.951-0.05,1.333,0.22C9.6,7.532,9.838,7.892,9.936,8.285
		c0.103,0.477-0.009,1.004-0.327,1.381c-0.224,0.27-0.542,0.432-0.83,0.625c0.451,1.17,0.825,2.373,1.346,3.517
		c0.786-0.292,1.514-0.745,2.1-1.345c-0.001,1.172,0,2.344,0,3.516c-1.305,0-2.61,0-3.914,0c0,1.447,0,2.895,0,4.344
		c1.001,0,2.003,0,3.004,0c-0.656,1.088-1.335,2.162-2.033,3.225c-0.325,0.498-0.663,0.988-0.979,1.492h-0.04
		c-0.665-1.047-1.373-2.066-2.027-3.123c-1.181-1.883-2.31-3.799-3.359-5.758c-0.574-1.072-1.116-2.162-1.601-3.275
		C0.693,11.529,0.155,10.128,0,8.653V7.805c0.047-0.552,0.12-1.104,0.267-1.639C0.711,4.46,1.726,2.91,3.105,1.813
		C4.43,0.736,6.101,0.109,7.801,0 M13.739,13.351c0.847,0.002,1.693-0.004,2.541,0.003c-0.005,1.239-0.002,2.478-0.002,3.718
		c1.239-0.002,2.478,0.004,3.717-0.004c0.012,0.85,0.002,1.697,0.004,2.546c-1.24,0-2.48-0.001-3.721,0
		c0,1.254-0.002,2.507,0.002,3.761c-0.848,0.006-1.695,0.002-2.541,0.002c0-1.254,0-2.508,0-3.763c-1.256-0.001-2.511,0-3.765,0
		c0-0.849-0.003-1.695,0.001-2.543c1.254,0.003,2.509,0.001,3.764,0.001C13.739,15.832,13.739,14.591,13.739,13.351L13.739,13.351z"
		/>
</g>
</svg>
