<svg xmlns="http://www.w3.org/2000/svg" width="25" height="25" viewBox="0 0 25 25">
  <defs>
    <style>
      .cls-1 {
        fill: #4caf50;
        fill-rule: evenodd;
      }
    </style>
  </defs>
  <path id="business_relation_icon" class="cls-1" d="M148,484.108v7.119s-1.62.3-1.953,0.339a2.437,2.437,0,0,1-2.136-.328c-1.168-1.053-5.319-4.936-5.319-4.936a1.651,1.651,0,0,0-1.864-.09c-1.055.523-2.619,1.29-3.272,1.588a1.509,1.509,0,0,1-2.258-1.11,1.451,1.451,0,0,1,.934-1.262c1.489-.849,4.628-2.506,5.935-3.16,0.795-.4,1.368-0.431,2.459.433,1.343,1.063,2.539,2.032,2.539,2.032a1.3,1.3,0,0,0,1.012.183C145.6,484.612,148,484.108,148,484.108ZM131.479,496.17a1.245,1.245,0,0,0-.251-1.4,1.458,1.458,0,0,0-1.334-.317,1.23,1.23,0,0,0-.288-1.267,1.458,1.458,0,0,0-1.334-.317,1.227,1.227,0,0,0-.289-1.265,1.576,1.576,0,0,0-2.109.052c-0.616.557-1.011,1.565-.461,2.159a1.476,1.476,0,0,0,1.662.128c-0.134.449-.535,0.867-0.041,1.454a1.474,1.474,0,0,0,1.662.13,1.263,1.263,0,0,0-.043,1.452,1.654,1.654,0,0,0,1.783.1c-0.2.484-.628,1-0.078,1.59s1.819,0.316,2.439-.241a1.333,1.333,0,0,0,.134-1.966A1.475,1.475,0,0,0,131.479,496.17Zm11.316-3.7c-4.483-4.217-2.374-2.233-4.787-4.507a1.641,1.641,0,0,0-1.681-.285c-0.67.277-1.534,0.654-2.184,0.942a3.759,3.759,0,0,1-1.469.459,2.434,2.434,0,0,1-2.5-2.349,2.319,2.319,0,0,1,1.183-1.991c1-.648,3.29-1.8,3.29-1.8a2.956,2.956,0,0,0-2.229-.832c-1.53,0-4.726,1.969-4.726,1.969a2.636,2.636,0,0,1-2.2.055L123,483.315v8.145s0.711,0.194,1.351.44a2.658,2.658,0,0,1,.7-1.04,2.884,2.884,0,0,1,3.783-.026,2.214,2.214,0,0,1,.6,1,2.428,2.428,0,0,1,1.024.587,2.221,2.221,0,0,1,.6,1,2.455,2.455,0,0,1,1.024.589,2.271,2.271,0,0,1,.632,1.09,2.471,2.471,0,0,1,1.068.6,2.277,2.277,0,0,1,.661,2.053,0,0,0,0,1,0,0c0.009,0.011.359,0.378,0.577,0.585a1.15,1.15,0,0,0,1.554,0,0.994,0.994,0,0,0,0-1.462,9.151,9.151,0,0,1-1.419-1.633,15.181,15.181,0,0,1,2.1,1.823,1.152,1.152,0,0,0,1.554,0,0.994,0.994,0,0,0,0-1.461c-0.021-.019-0.109-0.1-0.142-0.129a10.376,10.376,0,0,1-1.781-1.754,17.46,17.46,0,0,1,2.548,1.964,1.146,1.146,0,0,0,1.508-.028,0.981,0.981,0,0,0,.054-1.383,11.838,11.838,0,0,1-1.683-1.943,10.782,10.782,0,0,1,1.946,1.61,1.153,1.153,0,0,0,1.553,0,1,1,0,0,0,0-1.463S142.8,492.47,142.795,492.466Z" transform="translate(-123 -478)"/>
</svg>
