<svg xmlns="http://www.w3.org/2000/svg" width="25" height="25" viewBox="0 0 25 25">
  <defs>
    <style>
      .cls-1 {
        fill: #4caf50;
        fill-rule: evenodd;
      }
    </style>
  </defs>
  <path id="data_icon" class="cls-1" d="M143.392,623.263a25.289,25.289,0,0,0-15.784,0c-2.329.9-3.608,2.171-3.608,3.588v15.3c0,1.417,1.279,2.69,3.608,3.588a25.289,25.289,0,0,0,15.784,0c2.329-.893,3.608-2.171,3.608-3.588v-15.3C147,625.434,145.721,624.161,143.392,623.263Zm2.226,18.886c0,0.78-1.018,1.637-2.723,2.295a23.955,23.955,0,0,1-14.79,0c-1.7-.658-2.723-1.515-2.723-2.295V639.51a8.4,8.4,0,0,0,2.226,1.2,25.289,25.289,0,0,0,15.784,0,8.726,8.726,0,0,0,2.226-1.2v2.639Zm0-5.021c0,0.781-1.018,1.638-2.723,2.295a23.955,23.955,0,0,1-14.79,0c-1.7-.657-2.723-1.514-2.723-2.295v-2.715a8.457,8.457,0,0,0,2.226,1.2,25.289,25.289,0,0,0,15.784,0,8.757,8.757,0,0,0,2.226-1.2v2.715Zm0-5.1c0,0.78-1.018,1.637-2.723,2.294a23.936,23.936,0,0,1-14.79,0c-1.7-.657-2.723-1.514-2.723-2.294v-2.793a8.428,8.428,0,0,0,2.226,1.2,25.289,25.289,0,0,0,15.784,0,8.726,8.726,0,0,0,2.226-1.2v2.793Zm-2.723-2.885a23.955,23.955,0,0,1-14.79,0c-1.7-.657-2.723-1.515-2.723-2.295s1.018-1.638,2.723-2.295a23.955,23.955,0,0,1,14.79,0c1.7,0.657,2.723,1.515,2.723,2.295S144.6,628.489,142.9,629.141Z" transform="translate(-123 -622)"/>
</svg>
