<svg xmlns="http://www.w3.org/2000/svg" width="25" height="91.344" viewBox="0 0 25 91.344">
  <defs>
    <style>
      .cls-1 {
        fill: #888;
        fill-rule: evenodd;
      }
    </style>
  </defs>
  <path id="direction-arrow" class="cls-1" d="M632.229,439.9l0.024-8.462,2.522,0.007-0.024,8.462Zm2.563-14.417,0.019-6.814-2.522-.008-0.019,6.815Zm-2.579,20.378-0.024,8.462,2.521,0.008,0.024-8.462Zm0.016,34.039,0.024-8.462,2.522,0.007-0.024,8.462Zm2.563-14.417,0.019-6.814-2.522-.008-0.019,6.815Zm-2.579,20.378-0.024,8.462,2.521,0.008,0.024-8.462Zm13.411,12.7a1.221,1.221,0,0,0,0-1.764,1.277,1.277,0,0,0-1.773,0l-9.086,8.944L635,488c0-.688-0.792-2-1.491-2S632,498.312,632,499l0.237,6.749-9.069-8.944a1.3,1.3,0,0,0-1.792,0,1.221,1.221,0,0,0,0,1.764l11.237,11.061a1.248,1.248,0,0,0,1.773,0Z" transform="translate(-621 -418.656)"/>
</svg>
