<svg id="empty_article_image" xmlns="http://www.w3.org/2000/svg" width="49.986" height="49.986" viewBox="0 0 180 180">
  <defs>
    <style>
      .cls-1 {
        fill: #ccc;
      }

      .cls-2 {
        fill: #999;
        fill-rule: evenodd;
      }
    </style>
  </defs>
  <rect class="cls-1" x="-81" width="340" height="180"/>
  <path id="icon-empty" class="cls-2" d="M158.545,48.568h-14V38.452A1.453,1.453,0,0,0,143.09,37H19.455A1.454,1.454,0,0,0,18,38.452v96.1A9.47,9.47,0,0,0,27.469,144H150.817A9.183,9.183,0,0,0,160,134.837V50.02A1.453,1.453,0,0,0,158.545,48.568Zm-1.456,86.269a6.272,6.272,0,0,1-12.544,0v-4.021a1.455,1.455,0,0,0-2.91,0v4.021a9.119,9.119,0,0,0,2.484,6.259H27.469a6.559,6.559,0,0,1-6.559-6.545V39.9H141.635v77.35a1.456,1.456,0,0,0,2.911,0V51.472H157.09v83.365h0ZM77.409,56.278H31.046a1.454,1.454,0,0,0-1.455,1.452v34.7a1.454,1.454,0,0,0,1.455,1.452H77.409a1.453,1.453,0,0,0,1.455-1.452v-34.7A1.454,1.454,0,0,0,77.409,56.278Zm-1.455,34.7H32.5V59.183H75.954V90.974Zm7.727-33.243a1.454,1.454,0,0,1,1.455-1.452H131.5a1.452,1.452,0,1,1,0,2.9H85.136A1.453,1.453,0,0,1,83.681,57.731Zm0,11.568a1.454,1.454,0,0,1,1.455-1.452H131.5a1.452,1.452,0,1,1,0,2.9H85.136A1.454,1.454,0,0,1,83.681,69.3Zm0,11.568a1.454,1.454,0,0,1,1.455-1.452H131.5a1.452,1.452,0,1,1,0,2.9H85.136A1.454,1.454,0,0,1,83.681,80.868Zm1.455,13.02a1.452,1.452,0,1,1,0-2.9H131.5a1.452,1.452,0,1,1,0,2.9H85.136ZM78.864,104a1.453,1.453,0,0,1-1.455,1.452H31.046a1.452,1.452,0,1,1,0-2.9H77.409A1.453,1.453,0,0,1,78.864,104Zm0,11.559a1.453,1.453,0,0,1-1.455,1.452H31.046a1.452,1.452,0,1,1,0-2.9H77.409A1.453,1.453,0,0,1,78.864,115.563Zm0,11.559a1.453,1.453,0,0,1-1.455,1.452H31.046a1.452,1.452,0,1,1,0-2.9H77.409A1.453,1.453,0,0,1,78.864,127.122ZM133.507,104a1.454,1.454,0,0,1-1.455,1.452H85.688a1.452,1.452,0,1,1,0-2.9h46.364A1.454,1.454,0,0,1,133.507,104Zm0,11.559a1.454,1.454,0,0,1-1.455,1.452H85.688a1.452,1.452,0,1,1,0-2.9h46.364A1.454,1.454,0,0,1,133.507,115.563Zm0,11.559a1.454,1.454,0,0,1-1.455,1.452H85.688a1.452,1.452,0,1,1,0-2.9h46.364A1.454,1.454,0,0,1,133.507,127.122Z"/>
</svg>
