<svg xmlns="http://www.w3.org/2000/svg" width="100" height="100" viewBox="0 0 100 100">
  <defs>
    <style>
      .cls-1 {
        fill: #888;
        fill-rule: evenodd;
      }
    </style>
  </defs>
  <path id="empty_thread" class="cls-1" d="M660.459,319.331a14.049,14.049,0,1,1,14.08-14.049A14.063,14.063,0,0,1,660.459,319.331Zm0-23.6a9.8,9.8,0,1,0,9.817,9.8A9.781,9.781,0,0,0,660.459,295.732ZM673.453,367H647.444V353.38h-8.322V334.669c0-7.444,4.694-13.395,10.453-13.395h21.972c5.759,0,10.453,5.951,10.453,13.395V353.38h-8.321V367h-0.226ZM651.5,362.746H669.19V349.127h8.321V334.444c0-4.888-2.767-9.141-6.189-9.141H649.575c-3.4,0-6.189,4.253-6.189,9.141v14.683h8.321v13.619H651.5Zm-48.186-43.415A13.937,13.937,0,1,1,617.4,305.507,14.017,14.017,0,0,1,603.316,319.331Zm0-23.6a9.655,9.655,0,0,0-9.818,9.8,9.768,9.768,0,0,0,9.818,9.795A9.8,9.8,0,1,0,603.316,295.732ZM616.31,367H590.3V353.38H582V334.669c0-7.444,4.694-13.395,10.453-13.395H614.4c5.76,0,10.453,5.951,10.453,13.395V353.38h-8.321V367H616.31Zm-21.951-4.254h17.688V349.127h8.321V334.444c0-4.888-2.766-9.141-6.189-9.141H592.227c-3.4,0-6.189,4.253-6.189,9.141v14.683h8.321v13.619ZM619.938,295.1v-5.317h-1.5a2.139,2.139,0,0,1-2.132-2.127V269.127A2.139,2.139,0,0,1,618.442,267H649.35a2.139,2.139,0,0,1,2.131,2.127v18.711a2.138,2.138,0,0,1-2.131,2.127H630.166l-6.826,6.81A2.071,2.071,0,0,1,619.938,295.1Zm0.635-9.366h1.5a2.139,2.139,0,0,1,2.131,2.127v2.331l3.833-3.824a1.942,1.942,0,0,1,1.5-.634h17.914V271.254H620.573v14.478Z" transform="translate(-582 -267)"/>
</svg>
