<svg id="empty_article_image" xmlns="http://www.w3.org/2000/svg" width="340" height="180" viewBox="0 0 340 180">
  <defs>
    <style>
      .cls-1 {
        fill: #ccc;
      }

      .cls-2 {
        fill: #999;
        fill-rule: evenodd;
      }
    </style>
  </defs>
  <rect class="cls-1" width="340" height="180"/>
  <path id="icon-empty" class="cls-2" d="M239.545,48.568h-14V38.452A1.453,1.453,0,0,0,224.09,37H100.455A1.453,1.453,0,0,0,99,38.452v96.1A9.47,9.47,0,0,0,108.469,144H231.817A9.183,9.183,0,0,0,241,134.837V50.02A1.453,1.453,0,0,0,239.545,48.568Zm-1.456,86.269a6.272,6.272,0,0,1-12.544,0v-4.021a1.455,1.455,0,0,0-2.91,0v4.021a9.119,9.119,0,0,0,2.484,6.259H108.469a6.559,6.559,0,0,1-6.558-6.545V39.9H222.635v77.35a1.456,1.456,0,0,0,2.911,0V51.472H238.09v83.365h0Zm-79.68-78.559H112.046a1.453,1.453,0,0,0-1.455,1.452v34.7a1.453,1.453,0,0,0,1.455,1.452h46.363a1.453,1.453,0,0,0,1.455-1.452v-34.7A1.453,1.453,0,0,0,158.409,56.278Zm-1.455,34.7H113.5V59.183h43.453V90.974Zm7.727-33.243a1.453,1.453,0,0,1,1.455-1.452H212.5a1.452,1.452,0,1,1,0,2.9H166.136A1.453,1.453,0,0,1,164.681,57.731Zm0,11.568a1.453,1.453,0,0,1,1.455-1.452H212.5a1.452,1.452,0,1,1,0,2.9H166.136A1.453,1.453,0,0,1,164.681,69.3Zm0,11.568a1.453,1.453,0,0,1,1.455-1.452H212.5a1.452,1.452,0,1,1,0,2.9H166.136A1.453,1.453,0,0,1,164.681,80.868Zm1.455,13.02a1.452,1.452,0,1,1,0-2.9H212.5a1.452,1.452,0,1,1,0,2.9H166.136ZM159.864,104a1.453,1.453,0,0,1-1.455,1.452H112.046a1.452,1.452,0,1,1,0-2.9h46.363A1.453,1.453,0,0,1,159.864,104Zm0,11.559a1.453,1.453,0,0,1-1.455,1.452H112.046a1.452,1.452,0,1,1,0-2.9h46.363A1.453,1.453,0,0,1,159.864,115.563Zm0,11.559a1.453,1.453,0,0,1-1.455,1.452H112.046a1.452,1.452,0,1,1,0-2.9h46.363A1.453,1.453,0,0,1,159.864,127.122ZM214.507,104a1.454,1.454,0,0,1-1.455,1.452H166.688a1.452,1.452,0,1,1,0-2.9h46.364A1.454,1.454,0,0,1,214.507,104Zm0,11.559a1.454,1.454,0,0,1-1.455,1.452H166.688a1.452,1.452,0,1,1,0-2.9h46.364A1.454,1.454,0,0,1,214.507,115.563Zm0,11.559a1.454,1.454,0,0,1-1.455,1.452H166.688a1.452,1.452,0,1,1,0-2.9h46.364A1.454,1.454,0,0,1,214.507,127.122Z"/>
</svg>
