<svg xmlns="http://www.w3.org/2000/svg" width="69.847" height="75.244" viewBox="0 0 70.781 76.25">
  <defs>
    <style>
      .cls-1 {
        fill: #fcfffb;
        fill-rule: evenodd;
        opacity: 0.5;
      }
    </style>
  </defs>
  <path id="_" data-name="ï³" class="cls-1" d="M120.4,570.041V557.786h12.254v12.255H120.4Zm14.977,0V557.786h13.616v12.255H135.377ZM120.4,555.063V541.447h12.254v13.616H120.4Zm14.977,0V541.447h13.616v13.616H135.377ZM120.4,538.724V526.47h12.254v12.254H120.4Zm31.316,31.317V557.786h13.616v12.255H151.716Zm-16.339-31.317V526.47h13.616v12.254H135.377Zm32.678,31.317V557.786H180.31v12.255H168.055Zm-16.339-14.978V541.447h13.616v13.616H151.716ZM136.739,518.3a1.4,1.4,0,0,1-1.362,1.362h-2.723a1.4,1.4,0,0,1-1.361-1.362V506.046a1.4,1.4,0,0,1,1.361-1.362h2.723a1.4,1.4,0,0,1,1.362,1.362V518.3Zm31.316,36.763V541.447H180.31v13.616H168.055Zm-16.339-16.339V526.47h13.616v12.254H151.716Zm16.339,0V526.47H180.31v12.254H168.055Zm1.362-20.424a1.4,1.4,0,0,1-1.362,1.362h-2.723a1.4,1.4,0,0,1-1.361-1.362V506.046a1.4,1.4,0,0,1,1.361-1.362h2.723a1.4,1.4,0,0,1,1.362,1.362V518.3Zm16.339-2.723a5.485,5.485,0,0,0-5.446-5.446h-5.447v-4.085a6.827,6.827,0,0,0-6.808-6.808h-2.723a6.828,6.828,0,0,0-6.808,6.808v4.085H142.185v-4.085a6.827,6.827,0,0,0-6.808-6.808h-2.723a6.828,6.828,0,0,0-6.808,6.808v4.085H120.4a5.485,5.485,0,0,0-5.447,5.446v54.464a5.485,5.485,0,0,0,5.447,5.446h59.91a5.485,5.485,0,0,0,5.446-5.446V515.577Z" transform="translate(-114.969 -499.25)"/>
</svg>
