<svg xmlns="http://www.w3.org/2000/svg" xmlns:xlink="http://www.w3.org/1999/xlink" preserveAspectRatio="xMidYMid" width="18" height="18" viewBox="0 0 20 20">
  <defs>
    <style>
      .cls-1 {
        fill: #333;
      }

      .cls-2 {
        fill: #fff;
        fill-rule: evenodd;
      }
    </style>
  </defs>
  <g>
    <circle cx="10" cy="10" r="10" class="cls-1"/>
    <path d="M16.545,10.040 L15.579,10.040 C15.328,10.040 15.125,9.835 15.125,9.581 C15.125,9.327 15.328,9.122 15.579,9.122 L16.545,9.122 C16.796,9.122 17.000,9.327 17.000,9.581 C17.000,9.835 16.796,10.040 16.545,10.040 ZM14.976,6.897 C14.904,6.938 14.826,6.958 14.749,6.958 C14.592,6.958 14.439,6.876 14.355,6.728 C14.229,6.509 14.304,6.228 14.521,6.101 L15.358,5.613 C15.575,5.486 15.853,5.561 15.979,5.781 C16.104,6.001 16.030,6.281 15.812,6.408 L14.976,6.897 ZM12.322,13.316 L12.322,13.860 C12.322,14.719 11.981,15.489 11.356,16.008 L11.356,18.081 L10.409,18.081 C10.409,18.588 10.002,19.000 9.500,19.000 C8.998,19.000 8.591,18.588 8.591,18.081 L7.606,18.081 L7.606,15.956 L7.680,15.956 C7.121,15.438 6.754,14.690 6.754,13.860 L6.754,13.359 C5.560,12.498 4.838,11.114 4.838,9.552 C4.838,6.941 6.919,4.824 9.503,4.824 C12.087,4.824 14.174,6.941 14.174,9.552 C14.174,11.088 13.458,12.452 12.322,13.316 ZM7.621,9.122 L9.026,11.614 L9.026,16.186 L9.936,16.186 L9.936,11.614 L11.378,9.122 L7.621,9.122 ZM12.924,4.486 C12.840,4.634 12.687,4.716 12.530,4.716 C12.453,4.716 12.374,4.696 12.303,4.654 C12.085,4.527 12.011,4.246 12.136,4.027 L12.619,3.181 C12.745,2.961 13.023,2.886 13.240,3.013 C13.458,3.140 13.532,3.421 13.407,3.641 L12.924,4.486 ZM9.481,3.895 C9.230,3.895 9.026,3.689 9.026,3.436 L9.026,2.459 C9.026,2.206 9.230,2.000 9.481,2.000 C9.732,2.000 9.936,2.206 9.936,2.459 L9.936,3.436 C9.936,3.689 9.732,3.895 9.481,3.895 ZM6.444,4.709 C6.287,4.709 6.134,4.626 6.050,4.479 L5.567,3.633 C5.442,3.414 5.516,3.133 5.734,3.006 C5.951,2.879 6.229,2.954 6.355,3.174 L6.837,4.020 C6.963,4.239 6.888,4.520 6.671,4.647 C6.599,4.689 6.521,4.709 6.444,4.709 ZM4.225,6.965 C4.148,6.965 4.070,6.945 3.998,6.904 L3.162,6.415 C2.944,6.289 2.870,6.007 2.995,5.788 C3.121,5.568 3.399,5.493 3.616,5.620 L4.453,6.108 C4.670,6.235 4.745,6.516 4.619,6.735 C4.535,6.883 4.382,6.965 4.225,6.965 ZM3.875,9.581 C3.875,9.835 3.671,10.040 3.420,10.040 L2.455,10.040 C2.203,10.040 2.000,9.835 2.000,9.581 C2.000,9.327 2.203,9.122 2.455,9.122 L3.420,9.122 C3.671,9.122 3.875,9.327 3.875,9.581 Z" class="cls-2"/>
  </g>
</svg>
