<svg xmlns="http://www.w3.org/2000/svg" xmlns:xlink="http://www.w3.org/1999/xlink" preserveAspectRatio="xMidYMid" width="23" height="23" viewBox="0 0 23 23">
  <defs>
    <style>
      .cls-1 {
        fill: #00a7ff;
        stroke: #fff;
        stroke-width: 1px;
      }

      .cls-2 {
        fill: #fff;
        fill-rule: evenodd;
      }
    </style>
  </defs>
  <g>
    <circle cx="11.5" cy="11.5" r="11" class="cls-1"/>
    <path d="M18.545,11.041 L17.580,11.041 C17.329,11.041 17.125,10.835 17.125,10.581 C17.125,10.327 17.329,10.122 17.580,10.122 L18.545,10.122 C18.796,10.122 19.000,10.327 19.000,10.581 C19.000,10.835 18.796,11.041 18.545,11.041 ZM16.976,7.897 C16.904,7.938 16.826,7.958 16.749,7.958 C16.592,7.958 16.439,7.876 16.355,7.729 C16.229,7.509 16.304,7.228 16.521,7.101 L17.358,6.613 C17.575,6.486 17.853,6.561 17.979,6.781 C18.104,7.001 18.030,7.282 17.812,7.409 L16.976,7.897 ZM14.322,14.316 L14.322,14.860 C14.322,15.719 13.981,16.489 13.356,17.008 L13.356,19.081 L12.409,19.081 C12.409,19.589 12.002,20.000 11.500,20.000 C10.998,20.000 10.591,19.589 10.591,19.081 L9.606,19.081 L9.606,16.956 L9.680,16.956 C9.121,16.438 8.754,15.691 8.754,14.860 L8.754,14.359 C7.561,13.498 6.838,12.114 6.838,10.552 C6.838,7.941 8.920,5.824 11.503,5.824 C14.087,5.824 16.174,7.941 16.174,10.552 C16.174,12.088 15.458,13.452 14.322,14.316 ZM9.622,10.122 L11.027,12.614 L11.027,17.186 L11.936,17.186 L11.936,12.614 L13.378,10.122 L9.622,10.122 ZM14.924,5.486 C14.840,5.634 14.687,5.716 14.530,5.716 C14.453,5.716 14.375,5.696 14.303,5.654 C14.086,5.528 14.011,5.247 14.137,5.027 L14.619,4.181 C14.745,3.961 15.023,3.886 15.240,4.013 C15.458,4.140 15.532,4.421 15.407,4.641 L14.924,5.486 ZM11.481,4.895 C11.230,4.895 11.027,4.690 11.027,4.436 L11.027,3.459 C11.027,3.206 11.230,3.000 11.481,3.000 C11.732,3.000 11.936,3.206 11.936,3.459 L11.936,4.436 C11.936,4.690 11.732,4.895 11.481,4.895 ZM8.444,5.709 C8.287,5.709 8.134,5.627 8.050,5.479 L7.567,4.634 C7.442,4.414 7.516,4.133 7.734,4.006 C7.951,3.879 8.229,3.954 8.355,4.174 L8.838,5.020 C8.963,5.239 8.889,5.520 8.671,5.647 C8.600,5.689 8.521,5.709 8.444,5.709 ZM6.225,7.965 C6.148,7.965 6.070,7.946 5.998,7.904 L5.162,7.416 C4.944,7.289 4.870,7.008 4.995,6.788 C5.121,6.568 5.399,6.493 5.616,6.620 L6.453,7.108 C6.670,7.235 6.745,7.516 6.619,7.736 C6.535,7.883 6.382,7.965 6.225,7.965 ZM5.875,10.581 C5.875,10.835 5.671,11.041 5.420,11.041 L4.455,11.041 C4.204,11.041 4.000,10.835 4.000,10.581 C4.000,10.327 4.204,10.122 4.455,10.122 L5.420,10.122 C5.671,10.122 5.875,10.327 5.875,10.581 Z" class="cls-2"/>
  </g>
</svg>
