<svg xmlns="http://www.w3.org/2000/svg" xmlns:xlink="http://www.w3.org/1999/xlink" preserveAspectRatio="xMidYMid" width="95.906" height="96" viewBox="0 0 95.906 96">
  <defs>
    <style>
      .cls-1 {
        fill: #777;
      }

      .cls-1, .cls-2 {
        fill-rule: evenodd;
      }

      .cls-2 {
        fill: #4caf50;
      }
    </style>
  </defs>
  <g>
    <path d="M81.836,14.077 C72.787,5.026 60.738,0.000 47.922,0.000 C35.105,0.000 23.056,5.026 14.007,14.077 C-4.706,32.795 -4.706,63.205 14.007,81.923 C23.056,90.974 35.105,96.000 47.922,96.000 C60.738,96.000 72.787,90.974 81.836,81.923 C100.549,63.205 100.549,32.795 81.836,14.077 ZM78.568,78.654 C70.403,86.821 59.482,91.347 47.922,91.347 C36.361,91.347 25.440,86.821 17.275,78.654 C9.111,70.488 4.587,59.564 4.587,48.000 C4.587,36.436 9.111,25.512 17.275,17.346 C25.440,9.179 36.373,4.653 47.922,4.653 C59.471,4.653 70.403,9.179 78.568,17.346 C86.732,25.512 91.257,36.448 91.257,48.000 C91.257,59.552 86.732,70.488 78.568,78.654 Z" class="cls-1"/>
    <path d="M62.494,36.820 L50.818,48.500 L62.495,60.180 C63.378,61.065 63.378,62.565 62.495,63.449 C61.994,63.949 61.494,64.078 60.866,64.078 C60.238,64.078 59.738,63.822 59.238,63.449 L47.549,51.769 L35.861,63.449 C35.361,63.949 34.861,64.078 34.233,64.078 C33.605,64.078 33.105,63.822 32.604,63.449 C31.720,62.565 31.720,61.064 32.604,60.180 L44.281,48.500 L32.604,36.820 C31.720,35.936 31.720,34.435 32.604,33.551 C33.488,32.667 34.989,32.667 35.873,33.551 L47.550,45.231 L59.227,33.551 C60.111,32.667 61.611,32.667 62.495,33.551 C63.378,34.435 63.378,35.808 62.494,36.820 Z" class="cls-2"/>
  </g>
</svg>
