<svg width="25" height="30" class="featured-icon" viewBox="0 0 26 30.75" fill="currentColor">
        <defs></defs>
        <path id="featured-icon" class="cls-1" d="M817.647,266.793h-21.29A2.378,2.378,0,0,0,794,269.068v26.186a2.381,2.381,0,0,0,2.357,2.276,2.491,2.491,0,0,0,1.686-.671L807,288.245l8.959,8.614a2.467,2.467,0,0,0,1.686.65A2.316,2.316,0,0,0,820,295.254V269.068A2.378,2.378,0,0,0,817.647,266.793Z" transform="translate(-794 -266.781)"></path>
        <path id="_" data-name="" class="cls-2" d="M813,275.055a0.439,0.439,0,0,0-.437-0.36l-3.922-.57-1.758-3.555a0.389,0.389,0,0,0-.766,0l-1.758,3.555-3.921.57a0.433,0.433,0,0,0-.438.36,0.614,0.614,0,0,0,.2.375l2.844,2.765-0.672,3.907a1.017,1.017,0,0,0-.015.156,0.341,0.341,0,0,0,.328.39,0.664,0.664,0,0,0,.312-0.093l3.508-1.844,3.508,1.844a0.641,0.641,0,0,0,.312.093,0.336,0.336,0,0,0,.321-0.39,1.013,1.013,0,0,0-.008-0.156l-0.672-3.907,2.836-2.765A0.587,0.587,0,0,0,813,275.055Z" transform="translate(-794 -266.781)"></path>
      </svg>
