<svg xmlns="http://www.w3.org/2000/svg" width="57.544" height="57.628" viewBox="0 0 63.938 64.031">
  <defs>
    <style>
      .cls-1 {
        fill: #4caf50;
        fill-rule: evenodd;
      }
    </style>
  </defs>
  <path id="find_talents" class="cls-1" d="M647.856,356.342a1.6,1.6,0,1,0-2.194-2.326,17.123,17.123,0,0,0-5.4,12.54,1.6,1.6,0,1,0,3.2,0A13.96,13.96,0,0,1,647.856,356.342Zm46.692,34.685L687,383.475l-12.589,12.6,7.544,7.55a8.692,8.692,0,0,0,12.293-.3,9.131,9.131,0,0,0,2.7-6.211A8.306,8.306,0,0,0,694.548,391.027ZM679.97,376.434a24.6,24.6,0,0,0-5.116-27.242,24.515,24.515,0,0,0-34.694,0,24.6,24.6,0,0,0,0,34.726,24.568,24.568,0,0,0,27.232,5.125l4.008,4.012,12.588-12.6Zm-8.131,4.468c-0.105.105-.211,0.208-0.318,0.311a20.211,20.211,0,0,1-28.029,0c-0.106-.1-0.212-0.205-0.316-0.31a20.319,20.319,0,0,1,0-28.69,20.254,20.254,0,0,1,28.663,0A20.324,20.324,0,0,1,671.839,380.9Zm-2.717-3.656L667,371.633a3.669,3.669,0,0,0-3.254-2.366l-4.416,10.839v-3.332a1.14,1.14,0,0,0-1.139-1.143h-1.465a1.141,1.141,0,0,0-1.144,1.143V380.1l-4.414-10.831a3.62,3.62,0,0,0-3.211,2.322l-2.168,5.657-0.565,1.477a1.974,1.974,0,0,0,.765,2.361,20.966,20.966,0,0,0,22.938,0,1.974,1.974,0,0,0,.765-2.362Zm-13.831-9.725a5.347,5.347,0,0,0,4.326,0c2.855-1.234,4.931-4.838,4.931-9.086,0-5.263-3.184-9.543-7.094-9.543s-7.1,4.28-7.1,9.543C650.358,362.683,652.434,366.287,655.291,367.521Zm2.163-16.388c2.63,0,4.855,3.344,4.855,7.3s-2.225,7.3-4.855,7.3-4.854-3.343-4.854-7.3S654.822,351.133,657.454,351.133Zm0.991,19.231h-1.986a1.678,1.678,0,0,0-1.421,2.57l0.481,0.764a1,1,0,0,0,.846.469h2.175a1,1,0,0,0,.846-0.469l0.48-.765A1.678,1.678,0,0,0,658.445,370.364Z" transform="translate(-633 -342)"/>
</svg>
