<svg xmlns="http://www.w3.org/2000/svg" width="74.444" height="59.999" viewBox="0 0 67 54">
  <defs>
    <style>
      .cls-1 {
        fill: #FFFFFF;
        fill-rule: evenodd;
      }
    </style>
  </defs>
  <path id="join_icon" class="cls-1" d="M191.225,785H155.043a6.731,6.731,0,0,1-6.727-6.724V776.05A13.538,13.538,0,0,1,161.2,762.519l0.814-.039,0.5,0.648a12.812,12.812,0,0,0,21.219,0l0.492-.646,0.813,0.037a13.527,13.527,0,0,1,12.913,13.531v2.226A6.728,6.728,0,0,1,191.225,785Zm-30.641-19.315a10.436,10.436,0,0,0-9.163,10.365v2.226a3.627,3.627,0,0,0,3.624,3.622h36.18a3.627,3.627,0,0,0,3.624-3.622V776.05a10.43,10.43,0,0,0-9.187-10.367A15.815,15.815,0,0,1,160.584,765.685Zm12.537,1.866c-7.273,0-13.191-7.221-13.191-16.094s5.916-16.1,13.191-16.1,13.192,7.221,13.192,16.1S180.4,767.551,173.121,767.551Zm0-29.091c-5.561,0-10.086,5.83-10.086,13s4.525,12.993,10.086,12.993,10.087-5.83,10.087-12.993S178.682,738.46,173.121,738.46Zm32.327,31.959a1.55,1.55,0,0,1-1.551-1.551v-1.953a8.968,8.968,0,0,0-7.8-8.9,16.82,16.82,0,0,1-1.8,1.829,1.552,1.552,0,0,1-2.036-2.343,14.023,14.023,0,0,0,1.912-2.045l0.494-.646,0.813,0.037A12.069,12.069,0,0,1,207,766.913v1.953A1.551,1.551,0,0,1,205.448,770.419Zm-12.687-15.231a1.55,1.55,0,0,1-1.278-2.428,13.226,13.226,0,0,0,2.193-7.44c0-6.186-3.889-11.219-8.667-11.219a1.551,1.551,0,1,1,0-3.1c6.491,0,11.772,6.423,11.772,14.32a16.355,16.355,0,0,1-2.736,9.2A1.564,1.564,0,0,1,192.761,755.188Zm-51.209,15.231A1.551,1.551,0,0,1,140,768.868v-1.953a12.066,12.066,0,0,1,11.519-12.068l0.813-.038,0.494,0.647a13.914,13.914,0,0,0,1.912,2.044,1.552,1.552,0,1,1-2.036,2.343,17,17,0,0,1-1.8-1.829,8.971,8.971,0,0,0-7.8,8.9v1.953A1.55,1.55,0,0,1,141.552,770.419Zm12.686-15.231a1.558,1.558,0,0,1-1.281-.672,16.35,16.35,0,0,1-2.736-9.2c0-7.9,5.279-14.32,11.772-14.32a1.551,1.551,0,1,1,0,3.1c-4.779,0-8.668,5.034-8.668,11.219a13.226,13.226,0,0,0,2.193,7.44,1.551,1.551,0,0,1-.4,2.156A1.571,1.571,0,0,1,154.238,755.188Z" transform="translate(-140 -731)"/>
</svg>
