<svg xmlns="http://www.w3.org/2000/svg" width="62.1" height="57.656" viewBox="0 0 69 64.062">
  <defs>
    <style>
      .cls-1 {
        fill: #4caf50;
        fill-rule: evenodd;
      }
    </style>
  </defs>
  <path id="offer_service" class="cls-1" d="M338.4,354.359l1.186-2.478a9.788,9.788,0,0,1,4.6-4.617H335.49a3.481,3.481,0,0,1-.6,4.224A3.556,3.556,0,0,1,338.4,354.359Zm24.034-7.095h-8.21c3.1,2.454,2.749,5.775.263,6.807l-1.229.511c6.33,0,6.287-.582,6.287,3.317a6.374,6.374,0,0,1,0,5.433v20.773a1.608,1.608,0,0,1-1.61,1.6h-52.64a1.607,1.607,0,0,1-1.61-1.6V361.583c-0.91-1.332-.611-2.6-0.611-6.545a3.557,3.557,0,0,1,3.569-3.55,3.5,3.5,0,0,1-.591-4.224h-5.256a3.674,3.674,0,0,0-3.681,3.668v38.8a3.675,3.675,0,0,0,3.681,3.668h24.4l-3.286,7.877H320.4a2.364,2.364,0,1,0,0,4.727h22.425a2.364,2.364,0,1,0,0-4.727h-1.507l-3.286-7.877h24.4a3.676,3.676,0,0,0,3.681-3.668v-38.8A3.675,3.675,0,0,0,362.432,347.264Zm-11.907,43.759a1.719,1.719,0,1,1,1.725-1.719A1.722,1.722,0,0,1,350.525,391.023Zm5.606,0a1.719,1.719,0,1,1,1.725-1.719A1.723,1.723,0,0,1,356.131,391.023ZM310.1,351.691a11.948,11.948,0,0,0-.872,2.088c-1.7,0-3.856-.39-3.856,1.259,0,6.369-.651,5.818,3.854,5.818a12.088,12.088,0,0,0,.874,2.089c-2.68,2.669-3.03,2.421-.75,4.692,1.426-1.538,2.765-1.811,6.958-3.552a8.112,8.112,0,1,1,12.437-5.164l7.423-3.084c0-2.391-.645-2.058-3.857-2.058a11.962,11.962,0,0,0-.873-2.089c1.2-1.2,3.007-2.445,1.837-3.611-4.546-4.53-3.67-4.567-6.86-1.391a11.874,11.874,0,0,0-2.1-.868c0-1.688.391-3.842-1.26-3.842-6.392,0-5.837-.652-5.837,3.842a11.969,11.969,0,0,0-2.1.868c-1.2-1.2-2.45-2.994-3.623-1.83C306.982,349.356,306.906,348.511,310.1,351.691Zm10.669-.188a5.8,5.8,0,0,0-1.584,11.387l6.667-2.768A5.791,5.791,0,0,0,320.769,351.5Zm19,5.322-27.233,11.31c-5.252,2.18-2.013,10.211,3.344,7.991l27.236-11.308c7.1,2.477,7.39,2.787,12.742-.594,2.94-1.859,2.266-6.508.463-5.765l-4.771,1.979a1.644,1.644,0,0,1-2.147-.883c-2.417-5.773-2.783-4.7,4.2-7.6,1.75-.727-1.006-4.519-4.436-3.73l-2.367.538C342.583,349.724,341.633,352.921,339.768,356.825Z" transform="translate(-297.125 -341.938)"/>
</svg>
