<svg xmlns="http://www.w3.org/2000/svg" xmlns:xlink="http://www.w3.org/1999/xlink" preserveAspectRatio="xMidYMid" width="39.961" height="36.366" viewBox="0 0 478 435">
  <defs>
    <style>
      .cls-1 {
        fill: #4caf50;
        fill-rule: evenodd;
      }
    </style>
  </defs>
  <path d="M365.716,102.548 C365.716,117.015 355.174,125.814 347.476,132.271 C344.560,134.717 339.134,139.179 339.148,140.846 C339.201,147.384 333.939,152.606 327.393,152.606 C327.360,152.606 327.327,152.606 327.294,152.606 C320.795,152.606 315.498,147.545 315.446,141.039 C315.342,128.216 324.708,120.537 332.235,114.224 C338.141,109.269 342.014,105.783 342.014,102.593 C342.014,96.134 336.754,90.880 330.290,90.880 C323.823,90.880 318.563,96.134 318.563,102.593 C318.563,109.132 313.257,114.433 306.711,114.433 C300.166,114.433 294.860,109.132 294.860,102.593 C294.860,83.077 310.753,67.199 330.287,67.199 C349.824,67.198 365.716,83.031 365.716,102.548 ZM327.622,163.536 C321.076,163.536 316.033,168.836 316.033,175.376 L316.033,175.467 C316.033,182.007 321.078,187.262 327.622,187.262 C334.167,187.262 339.473,181.916 339.473,175.376 C339.473,168.836 334.168,163.536 327.622,163.536 ZM88.742,246.014 C82.196,246.014 76.891,251.314 76.891,257.854 C76.891,264.394 82.196,269.694 88.742,269.694 L89.730,269.694 C96.276,269.694 101.581,264.394 101.581,257.854 C101.581,251.314 96.276,246.014 89.730,246.014 L88.742,246.014 ZM129.930,246.014 C123.385,246.014 118.079,251.314 118.079,257.854 C118.079,264.394 123.385,269.694 129.930,269.694 L130.917,269.694 C137.462,269.694 142.768,264.394 142.768,257.854 C142.768,251.314 137.462,246.014 130.917,246.014 L129.930,246.014 ZM478.000,56.900 L478.000,190.170 C478.000,221.724 452.675,247.329 421.092,247.329 L267.398,247.329 C264.393,247.329 261.919,247.312 259.849,247.269 C257.680,247.224 255.239,247.207 254.287,247.312 C253.295,247.970 250.864,250.195 248.522,252.351 C247.593,253.205 246.543,254.144 245.409,255.178 L201.925,294.775 C198.457,297.936 193.325,298.754 189.030,296.863 C184.734,294.970 181.719,290.720 181.719,286.030 L181.719,160.501 L57.571,160.501 C39.054,160.501 23.702,175.660 23.702,194.157 L23.702,327.428 C23.702,345.926 39.055,360.470 57.571,360.470 L229.248,360.470 C232.204,360.470 234.969,361.826 237.152,363.818 L272.578,396.450 L272.578,283.916 C272.578,277.376 277.884,272.076 284.430,272.076 C290.976,272.076 296.281,277.376 296.281,283.916 L296.281,423.286 C296.281,427.977 293.595,432.163 289.298,434.056 C287.761,434.733 286.218,435.000 284.602,435.000 C281.700,435.000 278.837,433.810 276.611,431.779 L224.653,384.149 L57.571,384.149 C25.986,384.149 -0.000,358.982 -0.000,327.426 L-0.000,194.157 C-0.000,162.603 25.986,136.820 57.571,136.820 L181.719,136.820 L181.719,56.900 C181.719,25.344 207.904,-0.001 239.489,-0.001 L421.093,-0.001 C452.675,-0.001 478.000,25.344 478.000,56.900 ZM454.298,56.900 C454.298,38.401 439.606,23.680 421.092,23.680 L239.489,23.680 C220.973,23.680 205.422,38.401 205.422,56.900 L205.422,148.771 L205.422,259.193 L229.249,237.680 C230.353,236.673 231.589,235.752 232.491,234.921 C243.372,224.904 246.156,223.303 260.348,223.595 C262.284,223.636 264.589,223.650 267.398,223.650 L421.092,223.650 C439.606,223.650 454.298,208.668 454.298,190.171 L454.298,56.900 L454.298,56.900 Z" class="cls-1"/>
</svg>
