<svg xmlns="http://www.w3.org/2000/svg" width="25" height="25" viewBox="0 0 26.088 26.088">
  <defs>
    <style>
      .cls-1 {
        fill: #4caf50;
        fill-rule: evenodd;
      }
    </style>
  </defs>
  <path id="resource_icon" class="cls-1" d="M133.983,591a3,3,0,1,1-3,3A3,3,0,0,1,133.983,591Zm0,6a4.663,4.663,0,0,0-4.66,4.667h9.319A4.663,4.663,0,0,0,133.983,597Zm12.687,11.292-4.25-4.258a10.991,10.991,0,1,0-1.412,1.415l4.25,4.257A1,1,0,0,0,146.67,608.293ZM125,597a8.986,8.986,0,1,1,8.986,9A9,9,0,0,1,125,597Z" transform="translate(-121.941 -584.956)"/>
</svg>
