<svg xmlns="http://www.w3.org/2000/svg" xmlns:xlink="http://www.w3.org/1999/xlink" preserveAspectRatio="xMidYMid" width="96" height="96" viewBox="0 0 96 96">
  <defs>
    <style>
      .cls-1 {
        fill: #4caf50;
      }

      .cls-1, .cls-2 {
        fill-rule: evenodd;
      }

      .cls-2 {
        fill: #777;
      }
    </style>
  </defs>
  <g>
    <path d="M63.296,32.696 L40.896,55.098 L32.699,46.901 C31.190,45.389 28.741,45.389 27.231,46.901 C25.720,48.409 25.720,50.859 27.231,52.368 L38.163,63.299 C38.918,64.055 39.909,64.434 40.898,64.434 C41.887,64.434 42.876,64.055 43.630,63.299 L68.765,38.164 C70.276,36.653 70.276,34.207 68.765,32.696 C67.254,31.186 64.807,31.186 63.296,32.696 Z" class="cls-1"/>
    <path d="M47.999,0.008 C21.537,0.008 0.008,21.536 0.008,47.998 C0.008,74.461 21.537,95.990 47.999,95.990 C74.461,95.990 95.990,74.461 95.990,47.998 C95.988,21.536 74.461,0.008 47.999,0.008 ZM47.999,88.253 C25.801,88.253 7.742,70.195 7.742,47.997 C7.742,25.800 25.801,7.740 47.999,7.740 C70.195,7.740 88.254,25.801 88.254,47.998 C88.254,70.195 70.195,88.253 47.999,88.253 Z" class="cls-2"/>
  </g>
</svg>
