<svg xmlns="http://www.w3.org/2000/svg" width="25" height="25" viewBox="0 0 25 25">
  <defs>
    <style>
      .cls-1 {
        fill: #4caf50;
        fill-rule: evenodd;
      }
    </style>
  </defs>
  <path id="service_icon" class="cls-1" d="M146.891,455.224a0.749,0.749,0,0,0-.738-0.567,2.539,2.539,0,0,1-1.735-4.419,0.639,0.639,0,0,0,.07-0.867,11.393,11.393,0,0,0-1.819-1.84,0.639,0.639,0,0,0-.873.071,2.642,2.642,0,0,1-2.863.644,2.554,2.554,0,0,1-1.551-2.5,0.637,0.637,0,0,0-.564-0.671,11.383,11.383,0,0,0-2.583-.007,0.64,0.64,0,0,0-.568.658,2.559,2.559,0,0,1-1.573,2.453,2.647,2.647,0,0,1-2.842-.648,0.639,0.639,0,0,0-.866-0.073,11.429,11.429,0,0,0-1.858,1.84,0.64,0.64,0,0,0,.069.873,2.552,2.552,0,0,1,.642,2.87,2.654,2.654,0,0,1-2.5,1.554,0.625,0.625,0,0,0-.664.565,11.549,11.549,0,0,0,0,2.615,0.761,0.761,0,0,0,.753.565,2.521,2.521,0,0,1,2.363,1.576,2.562,2.562,0,0,1-.642,2.844,0.639,0.639,0,0,0-.07.866,11.418,11.418,0,0,0,1.816,1.841,0.638,0.638,0,0,0,.874-0.07,2.64,2.64,0,0,1,2.862-.645,2.552,2.552,0,0,1,1.554,2.5,0.638,0.638,0,0,0,.563.672,11.4,11.4,0,0,0,2.584.007,0.64,0.64,0,0,0,.568-0.658,2.556,2.556,0,0,1,1.571-2.453,2.648,2.648,0,0,1,2.843.648,0.642,0.642,0,0,0,.867.073,11.462,11.462,0,0,0,1.857-1.84,0.64,0.64,0,0,0-.068-0.874,2.54,2.54,0,0,1,1.705-4.427l0.142,0a0.639,0.639,0,0,0,.672-0.564A11.434,11.434,0,0,0,146.891,455.224Zm-11.409,7.906a6.625,6.625,0,1,1,5.683-3.23l-2.9-2.9a4.062,4.062,0,0,0-4.807-5.508,0.463,0.463,0,0,0-.318.321,0.451,0.451,0,0,0,.128.439s1.431,1.444,1.91,1.924a0.3,0.3,0,0,1,.043.213l0,0.031a9.116,9.116,0,0,1-.218,1.4c-0.01.011-.02,0.019-0.031,0.03l-0.031.032a8.9,8.9,0,0,1-1.423.222v0l-0.024.006h-0.023a0.305,0.305,0,0,1-.22-0.093c-0.5-.5-1.873-1.867-1.873-1.867A0.469,0.469,0,0,0,131.04,454a0.456,0.456,0,0,0-.428.347,4.081,4.081,0,0,0,1.048,3.937,4.058,4.058,0,0,0,4.454.87l2.93,2.934A6.581,6.581,0,0,1,135.482,463.13Z" transform="translate(-122.984 -444)"/>
</svg>
