<svg xmlns="http://www.w3.org/2000/svg" width="64" height="68" viewBox="0 0 64 68">
  <defs>
    <style>
      .cls-1 {
        fill: #4caf50;
        fill-rule: evenodd;
      }
    </style>
  </defs>
  <path id="sign_up" class="cls-1" d="M16.373,26.286c0.161,0.066.324,0.126,0.489,0.184L17.2,26.594c0.134,0.052.267,0.1,0.412,0.146a13.64,13.64,0,0,0,4.054.621h0a13.476,13.476,0,0,0,1.364-.071c0.166-.015.332-0.042,0.5-0.07l0.263-.041c0.2-.027.406-0.056,0.61-0.1,0.134-.028.262-0.062,0.391-0.1l0.32-.081c0.194-.046.39-0.094,0.6-0.16,0.1-.033.2-0.069,0.293-0.106l0.285-.1c0.218-.076.439-0.153,0.65-0.243,0.09-.038.178-0.082,0.336-0.16,0.287-.129.575-0.262,0.892-0.433l0.159-.1c0.317-.181.63-0.366,0.931-0.566l0.121-.087A13.648,13.648,0,1,0,8.1,12.821L8.089,13c-0.016.225-.03,0.449-0.03,0.68A13.666,13.666,0,0,0,16.373,26.286ZM10.782,13.191l0.013-.2a10.9,10.9,0,1,1,17.043,9.733l-0.128.087c-0.231.151-.47,0.29-0.714,0.429l-0.139.088c-0.22.117-.449,0.223-0.7,0.334l-0.266.13c-0.159.067-.325,0.124-0.491,0.182l-0.514.187c-0.131.041-.266,0.072-0.4,0.1l-0.4.1c-0.084.023-.167,0.046-0.25,0.063-0.136.028-.275,0.046-0.413,0.064l-0.367.057c-0.092.016-.182,0.034-0.293,0.043a10.868,10.868,0,0,1-4.358-.44c-0.089-.029-0.174-0.061-0.26-0.095l-0.394-.144c-0.117-.042-0.235-0.084-0.343-0.129a10.953,10.953,0,0,1-6.661-10.1C10.759,13.517,10.771,13.353,10.782,13.191ZM45.114,30.011a18.672,18.672,0,0,0-10.139,3A21.565,21.565,0,0,0,0,50.088c0,0.2.012,0.392,0.024,0.589L0.09,52.265H26.525A18.889,18.889,0,1,0,45.114,30.011ZM26.236,49.551H2.707A19.011,19.011,0,0,1,21.637,31.044a18.822,18.822,0,0,1,11.1,3.636c-0.062.056-.116,0.118-0.178,0.174-0.4.362-.789,0.737-1.16,1.132-0.093.1-.183,0.2-0.274,0.3q-0.532.592-1.015,1.225c-0.076.1-.15,0.2-0.223,0.3q-0.486.667-.913,1.377c-0.051.085-.105,0.171-0.155,0.258-0.291.5-.559,1.015-0.8,1.543-0.032.068-.067,0.136-0.1,0.2q-0.37.822-.663,1.683c-0.019.057-.043,0.111-0.061,0.169q-0.283.859-.483,1.75c-0.015.064-.034,0.126-0.048,0.19-0.124.574-.217,1.159-0.287,1.751-0.009.084-.028,0.164-0.038,0.248A19.247,19.247,0,0,0,26.229,49C26.229,49.186,26.231,49.368,26.236,49.551ZM45.114,65.285A16.309,16.309,0,0,1,28.927,49a16.047,16.047,0,0,1,.112-1.841c0.015-.137.043-0.269,0.061-0.4,0.069-.484.151-0.966,0.262-1.441,0.028-.125.063-0.247,0.095-0.369,0.128-.5.277-0.988,0.451-1.467,0.031-.086.061-0.171,0.093-0.255a16.335,16.335,0,0,1,.714-1.62l0.012-.027a16.426,16.426,0,0,1,2.117-3.163,0.308,0.308,0,0,1,.028-0.03,16.153,16.153,0,0,1,1.232-1.28l0.2-.178a16.491,16.491,0,0,1,1.3-1.065c0.1-.076.2-0.156,0.306-0.229l0.209-.152a16.038,16.038,0,0,1,9-2.756A16.279,16.279,0,0,1,45.114,65.285Zm2.009-18.3h7.912v4.034H47.123V58.98H43.111V51.022H35.2V46.988h7.912V39.031h4.013v7.956h0Z"/>
</svg>
