<svg xmlns="http://www.w3.org/2000/svg" width="25" height="25" viewBox="0 0 25 25">
  <defs>
    <style>
      .cls-1 {
        fill: #4caf50;
        fill-rule: evenodd;
      }
    </style>
  </defs>
  <path id="support_icon" class="cls-1" d="M146.574,523.405s0,0,0-.006l0-.008a11.417,11.417,0,0,0-1.025-2.47,0.391,0.391,0,0,0,.266.107,0.4,0.4,0,0,0,.4-0.4v-0.387a0.4,0.4,0,1,0-.793,0v0.387a0.378,0.378,0,0,0,.013.067c-0.06-.1-0.12-0.2-0.183-0.3a0.267,0.267,0,0,0-.037-0.038,11.636,11.636,0,0,0-.8-1.115,0.336,0.336,0,0,0-.027-0.049c-0.079-.1-0.159-0.19-0.24-0.283-0.008-.008-0.018-0.012-0.026-0.02a11.624,11.624,0,0,0-1.005-1c-0.008-.007-0.01-0.016-0.018-0.023-0.093-.081-0.187-0.162-0.282-0.24a0.3,0.3,0,0,0-.047-0.025,11.5,11.5,0,0,0-1.117-.8,0.341,0.341,0,0,0-.039-0.037c-0.1-.063-0.2-0.124-0.3-0.184a0.369,0.369,0,0,0,.075.015h0.387a0.4,0.4,0,1,0,0-.793h-0.387a0.4,0.4,0,0,0-.4.4,0.392,0.392,0,0,0,.11.27,11.475,11.475,0,0,0-2.478-1.03,0.021,0.021,0,0,1-.007,0h0a11.441,11.441,0,0,0-6.193,0H132.4l-0.006,0a11.457,11.457,0,0,0-2.471,1.026,0.393,0.393,0,0,0-.29-0.663h-0.387a0.4,0.4,0,1,0,0,.793h0.387a0.361,0.361,0,0,0,.067-0.013c-0.1.06-.2,0.121-0.3,0.184a0.328,0.328,0,0,0-.038.036,11.535,11.535,0,0,0-1.116.8c-0.015.01-.033,0.014-0.048,0.026-0.095.078-.19,0.159-0.283,0.241a0.2,0.2,0,0,0-.018.023,11.647,11.647,0,0,0-1.006,1.006c-0.008.008-.017,0.011-0.024,0.018-0.081.093-.161,0.187-0.24,0.283a0.257,0.257,0,0,0-.026.049,11.331,11.331,0,0,0-.8,1.114,0.341,0.341,0,0,0-.037.039c-0.063.1-.124,0.2-0.184,0.3a0.347,0.347,0,0,0,.015-0.074v-0.387a0.4,0.4,0,1,0-.793,0v0.387a0.4,0.4,0,0,0,.4.4,0.39,0.39,0,0,0,.27-0.11,11.4,11.4,0,0,0-1.029,2.478,0.03,0.03,0,0,0,0,.008s0,0,0,.006a11.456,11.456,0,0,0,0,6.19s0,0,0,.006a0.042,0.042,0,0,0,0,.01,11.472,11.472,0,0,0,1.025,2.468,0.391,0.391,0,0,0-.266-0.107,0.4,0.4,0,0,0-.4.4v0.387a0.4,0.4,0,1,0,.793,0v-0.387a0.378,0.378,0,0,0-.013-0.067q0.089,0.153.183,0.3a0.41,0.41,0,0,0,.053.064,11.6,11.6,0,0,0,.788,1.089,0.336,0.336,0,0,0,.027.049c0.078,0.1.159,0.19,0.24,0.283,0.007,0.008.017,0.01,0.024,0.017a11.53,11.53,0,0,0,1.007,1.007c0.007,0.007.011,0.017,0.018,0.024,0.093,0.081.187,0.161,0.282,0.239a0.278,0.278,0,0,0,.053.03,11.262,11.262,0,0,0,1.111.8c0.014,0.011.023,0.026,0.038,0.036,0.1,0.063.2,0.125,0.3,0.184a0.452,0.452,0,0,0-.075-0.014h-0.387a0.4,0.4,0,1,0,0,.793h0.387a0.395,0.395,0,0,0,.287-0.668,11.428,11.428,0,0,0,2.478,1.031,0.021,0.021,0,0,1,.007,0h0.008a11.445,11.445,0,0,0,6.187,0H138.6l0.007,0a11.457,11.457,0,0,0,2.471-1.026,0.391,0.391,0,0,0-.107.266,0.4,0.4,0,0,0,.4.4h0.387a0.4,0.4,0,1,0,0-.793h-0.387a0.361,0.361,0,0,0-.067.013c0.1-.06.2-0.121,0.3-0.184a0.328,0.328,0,0,0,.038-0.036,11.368,11.368,0,0,0,1.11-.8,0.485,0.485,0,0,0,.054-0.03c0.095-.079.19-0.159,0.283-0.241a0.25,0.25,0,0,0,.018-0.024,11.553,11.553,0,0,0,1.008-1.008c0.006-.006.015-0.009,0.021-0.016,0.082-.093.162-0.187,0.241-0.283a0.367,0.367,0,0,0,.026-0.048,11.538,11.538,0,0,0,.787-1.089,0.424,0.424,0,0,0,.054-0.065c0.062-.1.124-0.2,0.183-0.3a0.472,0.472,0,0,0-.014.075v0.387a0.4,0.4,0,1,0,.793,0v-0.387a0.395,0.395,0,0,0-.668-0.287,11.409,11.409,0,0,0,1.03-2.476,0.1,0.1,0,0,0,0-.01s0,0,0-.006A11.456,11.456,0,0,0,146.574,523.405ZM135.5,515.793a10.67,10.67,0,0,1,2.525.3l-1.1,4.406a5.964,5.964,0,0,0-2.848,0l-1.1-4.406A10.722,10.722,0,0,1,135.5,515.793ZM124.793,526.5a10.67,10.67,0,0,1,.3-2.525l4.405,1.1a5.981,5.981,0,0,0,0,2.848l-4.405,1.1A10.67,10.67,0,0,1,124.793,526.5ZM135.5,537.207a10.67,10.67,0,0,1-2.525-.3l1.1-4.406a5.947,5.947,0,0,0,2.848,0l1.1,4.406A10.67,10.67,0,0,1,135.5,537.207Zm0-5.33a5.377,5.377,0,1,1,5.377-5.377A5.383,5.383,0,0,1,135.5,531.877Zm10.4-2.852-4.405-1.1a5.981,5.981,0,0,0,0-2.848l4.405-1.1A10.638,10.638,0,0,1,145.9,529.025ZM125.57,517.236a0.4,0.4,0,0,0,.309-0.148,1.322,1.322,0,0,1,.212-0.211,0.4,0.4,0,0,0-.495-0.621,2.166,2.166,0,0,0-.335.335A0.4,0.4,0,0,0,125.57,517.236Zm1.737-.65h0.387a0.4,0.4,0,1,0,0-.793h-0.387A0.4,0.4,0,1,0,127.307,516.586Zm-2.117,2.5a0.4,0.4,0,0,0,.4-0.4V518.3a0.4,0.4,0,1,0-.793,0v0.387A0.4,0.4,0,0,0,125.19,519.086Zm18.12-2.5H143.7a0.4,0.4,0,0,0,0-.793H143.31A0.4,0.4,0,0,0,143.31,516.586Zm1.813,0.5a0.4,0.4,0,0,0,.311.15,0.39,0.39,0,0,0,.247-0.087,0.4,0.4,0,0,0,.063-0.557,2.129,2.129,0,0,0-.335-0.336,0.4,0.4,0,1,0-.5.618A1.4,1.4,0,0,1,145.123,517.09Zm0.291,1.217V518.7a0.4,0.4,0,0,0,.793,0v-0.388A0.4,0.4,0,1,0,145.414,518.307Zm0.4,15.607a0.4,0.4,0,0,0-.4.4V534.7a0.4,0.4,0,1,0,.793,0V534.31A0.4,0.4,0,0,0,145.81,533.914Zm-2.117,2.5h-0.387a0.4,0.4,0,1,0,0,.793h0.387A0.4,0.4,0,1,0,143.693,536.414Zm1.428-.5a1.358,1.358,0,0,1-.211.211,0.4,0.4,0,0,0,.247.707,0.39,0.39,0,0,0,.247-0.087,2.081,2.081,0,0,0,.336-0.334A0.4,0.4,0,1,0,145.121,535.912Zm-17.432.5H127.3a0.4,0.4,0,1,0,0,.793h0.387A0.4,0.4,0,1,0,127.689,536.414Zm-2.1-1.721V534.3a0.4,0.4,0,0,0-.793,0v0.388A0.4,0.4,0,1,0,125.586,534.693Zm0.29,1.217a0.4,0.4,0,0,0-.62.494,2.172,2.172,0,0,0,.335.336,0.4,0.4,0,0,0,.248.087,0.4,0.4,0,0,0,.248-0.705A1.565,1.565,0,0,1,125.876,535.91Z" transform="translate(-123 -514)"/>
</svg>
