<svg xmlns="http://www.w3.org/2000/svg" width="70.2" height="57.6" viewBox="0 0 78 64">
  <defs>
    <style>
      .cls-1 {
        fill: #4caf50;
        fill-rule: evenodd;
      }
    </style>
  </defs>
  <path id="talk" class="cls-1" d="M1006.8,354.451a6.01,6.01,0,1,1-6.03,6.01A6.02,6.02,0,0,1,1006.8,354.451Zm11.73,31.826a2.775,2.775,0,0,0-2.75-2.44h0l-4.8,0V377.27a8.46,8.46,0,0,0,5.8,2.294,14.256,14.256,0,0,0,5.05-1.072,2.333,2.333,0,1,0-1.67-4.357c-4.73,1.8-5.66.8-9.81-4.86-0.01-.013-0.02-0.021-0.03-0.034a5.938,5.938,0,0,0-3.52-2.4,4.877,4.877,0,0,0-1.31-.176,8.867,8.867,0,0,0-1.37.165l-0.02,0c-2.03.5-4.186,2.142-4.186,4.614v13.266c0,2.884,2.875,4.669,5.535,4.667,0.15,0,.29-0.013.44-0.022l7.43-.007,1.58,13.624a2.76,2.76,0,0,0,2.74,2.439,2.809,2.809,0,0,0,.33-0.019,2.769,2.769,0,0,0,2.43-3.056Zm-5.95,6.206a2.332,2.332,0,0,0-2.34-2.333H998.681V371.642a2.341,2.341,0,0,0-4.682,0v20.841a2.334,2.334,0,0,0,1.15,2.008,5.434,5.434,0,0,0-.7,2.677v6.524a1.96,1.96,0,0,0,3.92,0v-6.524a1.6,1.6,0,0,1,1.6-1.6h6.548a1.6,1.6,0,0,1,1.6,1.6v6.523a1.96,1.96,0,0,0,3.92,0v-6.523a5.455,5.455,0,0,0-.67-2.636A2.336,2.336,0,0,0,1012.58,392.483Zm46.62-38.032a6.01,6.01,0,1,1-6.03,6.01A6.02,6.02,0,0,1,1059.2,354.451Zm1.35,34.932c2.66,0,5.53-1.783,5.53-4.667V371.45c0-2.472-2.15-4.119-4.18-4.614l-0.02,0a8.867,8.867,0,0,0-1.37-.165,4.877,4.877,0,0,0-1.31.176,5.938,5.938,0,0,0-3.52,2.4c-0.01.013-.02,0.021-0.03,0.034-4.15,5.656-5.08,6.664-9.81,4.86a2.333,2.333,0,1,0-1.67,4.357,14.234,14.234,0,0,0,5.05,1.072,8.46,8.46,0,0,0,5.8-2.294v6.571l-4.8,0h0a2.767,2.767,0,0,0-2.75,2.44l-1.87,16.064a2.768,2.768,0,0,0,5.5.636l1.58-13.623,7.43,0C1060.25,389.37,1060.4,389.383,1060.55,389.383Zm11.45,3.1V371.642a2.34,2.34,0,0,0-4.68,0V390.15h-11.56a2.332,2.332,0,0,0-1.12,4.382,5.462,5.462,0,0,0-.68,2.635v6.524a1.96,1.96,0,0,0,3.92,0v-6.523a1.6,1.6,0,0,1,1.61-1.6h6.54a1.6,1.6,0,0,1,1.6,1.6v6.523a1.96,1.96,0,0,0,3.92,0v-6.523a5.405,5.405,0,0,0-.7-2.678A2.326,2.326,0,0,0,1072,392.483Zm-24.23-10.2a2.237,2.237,0,0,0-2.24-2.236h-26.02a2.236,2.236,0,1,0,0,4.472h3.08v19.853h19.86V384.519h3.08A2.236,2.236,0,0,0,1047.77,382.283Zm-30.7-25.026h0.54l-1.34,3.216,3.81-3.216h3.73v-1.581a1.693,1.693,0,0,1,1.69-1.692h15.1V343.34a1.7,1.7,0,0,0-1.7-1.693h-21.83a1.7,1.7,0,0,0-1.7,1.693v12.224A1.7,1.7,0,0,0,1017.07,357.257Zm16.12-10.122a1.631,1.631,0,1,1-1.64,1.63A1.63,1.63,0,0,1,1033.19,347.135Zm-5.11,0a1.631,1.631,0,1,1-1.64,1.63A1.63,1.63,0,0,1,1028.08,347.135Zm-5.29,0a1.631,1.631,0,1,1-1.64,1.63A1.63,1.63,0,0,1,1022.79,347.135Zm2.28,9.805v12.224a1.7,1.7,0,0,0,1.7,1.692h18.82l3.81,3.216-1.34-3.216h0.55a1.693,1.693,0,0,0,1.69-1.692V356.94a1.694,1.694,0,0,0-1.69-1.693h-21.84A1.7,1.7,0,0,0,1025.07,356.94Zm17.82,4.106a1.631,1.631,0,1,1-1.63,1.63A1.639,1.639,0,0,1,1042.89,361.046Zm-5.11,0a1.631,1.631,0,1,1-1.64,1.63A1.63,1.63,0,0,1,1037.78,361.046Zm-5.29,0a1.631,1.631,0,1,1-1.64,1.63A1.63,1.63,0,0,1,1032.49,361.046Z" transform="translate(-994 -341.656)"/>
</svg>
